# xmcd
#
# Track frame offsets:
#	150
#	19410
#	46457
#	71866
#	96040
#	117509
#	142672
#	168467
#
# Disc length: 2535 seconds
# Revision: 0
# Processed by: cddbd v1.5.2PL0 Copyright (c) Steve Scherf et al.
# Submitted via: dBpowerAMP V12.0
#
DISCID=6e09e508
DTITLE=Dukesy and The Hazzards - Didn't Mean a Thing
DYEAR=2014
DGENRE=Blues Funk
TTITLE0=Just Gotta Think
TTITLE1=My Baby's Gone 
TTITLE2=My oh my 
TTITLE3=The Way he is 
TTITLE4=Cut Him Loose 
TTITLE5=Didn't Mean a Thing
TTITLE6=The Devil 
TTITLE7=Be Careful What You Wish For
EXTD=
EXTT0=
EXTT1=
EXTT2=
EXTT3=
EXTT4=
EXTT5=
EXTT6=
EXTT7=
PLAYORDER=
